# xmcd
#
# Track frame offsets:
#	150
#	13876
#	24081
#	35571
#	46362
#	56403
#	68604
#	79289
#	90427
#	101965
#	114103
#	127443
#	138429
#	152068
#	165593
#	178367
#
# Disc length: 2537 seconds
# Revision: 0
# Processed by: cddbd v1.5.2PL0 Copyright (c) Steve Scherf et al.
# Submitted via: dBpowerAMP V12.0
#
DISCID=d509e710
DTITLE=Various Artist - More Northern Soul Memories(DISC1)
DYEAR=2002
DGENRE=R&B
TTITLE0=Am I the Same Girl
TTITLE1=Gotta Have Your Love
TTITLE2=The 81
TTITLE3=Gonna Be a Big Thing
TTITLE4=Gettin' Back in Circulation
TTITLE5=Jerk Baby Jerk
TTITLE6=I'm the One to Do It
TTITLE7=Do the Skin
TTITLE8=Alley Full of Trash
TTITLE9=Mystery of a Miracle
TTITLE10=Soul Sauce
TTITLE11=What Love Brings
TTITLE12=When Love Slips Away
TTITLE13=I Stand Accused
TTITLE14=Let Me Come Back
TTITLE15=Have Love Will Travel
EXTD=
EXTT0=
EXTT1=
EXTT2=
EXTT3=
EXTT4=
EXTT5=
EXTT6=
EXTT7=
EXTT8=
EXTT9=
EXTT10=
EXTT11=
EXTT12=
EXTT13=
EXTT14=
EXTT15=
PLAYORDER=
